<?xml version="1.0" encoding="utf-8"?>
<!-- Generator: Adobe Illustrator 23.0.0, SVG Export Plug-In . SVG Version: 6.00 Build 0)  -->
<svg version="1.1" id="图层_1" xmlns="http://www.w3.org/2000/svg" xmlns:xlink="http://www.w3.org/1999/xlink" x="0px" y="0px" width="130" height="34" viewBox="0 0 130 34" style="enable-background:new 0 0 130 34;" xml:space="preserve">
<style type="text/css">
	.st0{fill:#29ABE2;}
	.st1{fill:#FFFFFF;}
</style>
<path class="st0" d="M125,34H5c-2.76,0-5-2.24-5-5V5c0-2.76,2.24-5,5-5h120c2.76,0,5,2.24,5,5v24C130,31.76,127.76,34,125,34z"/>
<g>
	<g>
		<path class="st1" d="M13.09,17.05H9.33c-0.32,0-0.58,0.04-0.76,0.13l-0.32-0.76c0.25,0.06,0.55,0.09,0.9,0.09h4.23
			c0.66-1.31,1.22-2.62,1.67-3.92c0.53,0.2,0.97,0.4,1.33,0.58c0.36,0.19,0.56,0.31,0.61,0.36s0.07,0.11,0.07,0.17
			c0,0.14-0.1,0.22-0.31,0.23c-0.35,0.02-0.66,0.31-0.93,0.85c-0.27,0.55-0.57,1.12-0.91,1.72h6.52l0.86-1.13
			c0.11-0.13,0.2-0.2,0.27-0.2c0.07,0,0.19,0.07,0.37,0.2c0.17,0.13,0.41,0.33,0.7,0.6c0.29,0.27,0.49,0.46,0.58,0.58
			c0.1,0.11,0.14,0.21,0.14,0.3c0,0.13-0.11,0.2-0.32,0.2h-3.6c-0.52,1.55-1.21,2.85-2.07,3.91c2.72,0.77,4.09,1.57,4.09,2.41
			c0,0.38-0.05,0.71-0.16,0.99c-0.11,0.28-0.22,0.41-0.35,0.41s-0.23-0.03-0.32-0.1c-0.09-0.07-0.22-0.18-0.39-0.33
			c-1.12-1.03-2.37-1.85-3.76-2.45c-0.91,0.82-2.02,1.46-3.31,1.93s-2.96,0.86-4.99,1.16l-0.07-0.31c3.25-0.88,5.58-1.99,6.98-3.33
			c-1.19-0.42-2.77-0.82-4.75-1.19C12.2,18.68,12.78,17.64,13.09,17.05z M11.35,12.09c0.04,0.23,0.05,0.44,0.05,0.65
			c0,0.64-0.13,1.15-0.4,1.53c-0.27,0.38-0.64,0.58-1.11,0.58c-0.26,0-0.47-0.07-0.61-0.2c-0.14-0.13-0.22-0.27-0.22-0.41
			s0.12-0.36,0.36-0.66c0.73-0.9,1.09-1.94,1.06-3.11h0.41c0.16,0.42,0.26,0.77,0.32,1.06h9.74l0.52-0.72
			c0.07-0.11,0.15-0.16,0.23-0.16s0.22,0.06,0.41,0.18c0.19,0.12,0.5,0.36,0.93,0.73c0.43,0.37,0.68,0.59,0.75,0.66
			c0.07,0.07,0.1,0.14,0.1,0.22c0,0.13-0.2,0.21-0.61,0.23c-0.41,0.02-0.8,0.13-1.18,0.35s-1.04,0.75-1.99,1.6l-0.31-0.18
			c0.52-0.83,0.91-1.61,1.17-2.34H11.35z M18.65,17.05h-4.01l-1.55,2.75c1.42,0.24,2.67,0.49,3.76,0.76
			C17.67,19.6,18.27,18.43,18.65,17.05z M14.41,8.56c0.91,0.17,1.62,0.36,2.11,0.58c0.5,0.22,0.75,0.51,0.75,0.87
			c0,0.17-0.05,0.37-0.14,0.59c-0.1,0.23-0.27,0.42-0.51,0.58c-0.25,0.16-0.43,0.23-0.55,0.23s-0.21-0.1-0.27-0.29
			c-0.14-0.58-0.33-1.02-0.56-1.32c-0.23-0.31-0.55-0.62-0.95-0.93L14.41,8.56z"/>
		<path class="st1" d="M34.22,18.22c-0.26-0.59-0.53-1.02-0.81-1.29c-0.28-0.27-0.65-0.53-1.13-0.77l0.09-0.31
			c2.15,0.1,3.22,0.55,3.22,1.35c0,0.47-0.22,0.8-0.65,1.01h4.16l0.94-1.26c0.12-0.16,0.22-0.23,0.31-0.23s0.22,0.08,0.41,0.22
			c0.19,0.15,0.43,0.37,0.72,0.66s0.5,0.5,0.62,0.65c0.12,0.14,0.18,0.27,0.18,0.38c0,0.11-0.11,0.16-0.32,0.16h-7.09
			c0.49,0.91,1.24,1.7,2.25,2.38c0.72-0.76,1.28-1.48,1.67-2.18c1.07,0.56,1.66,0.89,1.77,0.97c0.11,0.08,0.17,0.16,0.17,0.22
			c0,0.1-0.12,0.14-0.36,0.14c-0.24,0-0.49,0.06-0.75,0.19c-0.26,0.13-0.89,0.48-1.88,1.05c1.27,0.7,2.96,1.24,5.06,1.64v0.31
			c-0.56,0.02-1.03,0.11-1.4,0.26c-0.37,0.15-0.65,0.41-0.85,0.76c-0.05,0.11-0.11,0.16-0.18,0.16c-0.16,0-0.7-0.25-1.62-0.76
			c-0.92-0.51-1.76-1.16-2.5-1.96c-0.74-0.8-1.42-1.86-2.02-3.18c-0.55,0.59-1.15,1.14-1.8,1.66v2.84l3.1-1.48l0.2,0.31
			c-1.55,1.24-2.53,2.03-2.93,2.39c-0.41,0.35-0.68,0.64-0.81,0.85c-0.04,0.06-0.1,0.09-0.18,0.09S31.5,25.31,31.16,25
			c-0.34-0.31-0.58-0.57-0.74-0.8c0.37-0.4,0.56-0.8,0.56-1.21v-1.48c-1.19,0.78-2.95,1.69-5.27,2.74l-0.09-0.34
			c2.88-1.7,5.06-3.41,6.55-5.11h-4.79c-0.28,0-0.48,0.04-0.61,0.11l-0.29-0.77c0.23,0.06,0.48,0.09,0.76,0.09H34.22z M30.53,13.24
			V10.2c0-0.6-0.01-1.13-0.04-1.6c1.3,0.3,1.94,0.53,1.94,0.68c0,0.1-0.17,0.24-0.5,0.43v7.22c0,0.12-0.06,0.23-0.18,0.32
			s-0.33,0.2-0.62,0.34c-0.29,0.14-0.48,0.21-0.56,0.21c-0.08,0-0.12-0.05-0.12-0.16l0.04-0.85c0.02-0.59,0.04-1.12,0.04-1.6v-1.37
			l-2.09,1.66c-0.5,0.4-0.8,0.66-0.9,0.79c-0.1,0.13-0.17,0.2-0.21,0.2s-0.19-0.15-0.43-0.45c-0.25-0.3-0.48-0.63-0.69-0.99
			C27.53,14.55,28.97,13.96,30.53,13.24z M26.56,9.75c0.9,0.25,1.57,0.49,2.01,0.7c0.44,0.22,0.72,0.43,0.86,0.65
			c0.13,0.22,0.2,0.47,0.2,0.77s-0.06,0.56-0.19,0.79C29.3,12.89,29.15,13,28.99,13s-0.31-0.11-0.43-0.34
			c-0.54-1.02-1.24-1.88-2.11-2.59L26.56,9.75z M36.19,12.54H33.4c-0.32,0-0.58,0.04-0.76,0.13l-0.36-0.81
			c0.25,0.06,0.55,0.09,0.9,0.09h3.01v-1.62c0-0.92-0.01-1.49-0.04-1.69c0.65,0.12,1.16,0.24,1.53,0.35s0.56,0.21,0.56,0.28
			c0,0.08-0.19,0.21-0.56,0.36v2.32h1.85l0.72-0.95c0.11-0.14,0.2-0.22,0.27-0.22c0.13,0,0.44,0.24,0.94,0.71
			c0.49,0.47,0.74,0.78,0.74,0.91c0,0.1-0.13,0.14-0.4,0.14h-4.12v2.63h1.06l0.86-1.06c0.07-0.1,0.14-0.14,0.2-0.14
			c0.11,0,0.42,0.24,0.93,0.71c0.51,0.47,0.77,0.76,0.77,0.85c0,0.09-0.11,0.13-0.34,0.13h-7.02c-0.32,0-0.58,0.04-0.76,0.13
			l-0.32-0.7c0.25,0.06,0.55,0.09,0.9,0.09h2.23V12.54z"/>
		<path class="st1" d="M54.24,22.45c-3.07,0-4.61-2.11-4.61-6.33c0-4.34,1.54-6.5,4.61-6.5s4.61,2.17,4.61,6.5
			C58.84,20.34,57.31,22.45,54.24,22.45z M54.24,20.83c1.82,0,2.72-1.57,2.72-4.71c0-3.26-0.91-4.89-2.72-4.89s-2.72,1.63-2.72,4.89
			C51.51,19.26,52.42,20.83,54.24,20.83z"/>
		<path class="st1" d="M67.02,22.27l-2.83-4.03l-3.74-5.29h2.11l2.87,4.18l3.71,5.13H67.02z M60.44,22.27l3.71-5.13l2.87-4.18h2.11
			l-3.85,5.29l-2.72,4.03H60.44z"/>
		<path class="st1" d="M74.25,22.27l-3.71-9.32h1.93l3.04,7.91h0.28v1.41H74.25z M70.72,26.49l-0.09-1.67l1.46-0.18
			c0.62-0.08,1.14-0.24,1.58-0.5s0.81-0.64,1.12-1.15s0.58-1.17,0.82-1.99l2.32-8.05h1.93l-2.69,8.49
			c-0.35,1.11-0.75,2.01-1.18,2.69s-0.95,1.19-1.55,1.53s-1.31,0.56-2.14,0.65L70.72,26.49z"/>
		<path class="st1" d="M87.18,22.45c-3.88,0-5.82-2.14-5.82-6.43c0-2.03,0.49-3.61,1.47-4.72s2.36-1.67,4.14-1.67
			c0.86,0,1.61,0.14,2.25,0.41s1.1,0.66,1.4,1.17l-1.3,1.29c-0.26-0.4-0.6-0.71-1.01-0.92s-0.85-0.33-1.32-0.33
			c-1.13,0-2.04,0.41-2.72,1.22s-1.02,1.97-1.02,3.47c0,3.27,1.41,4.9,4.24,4.9c0.85,0,1.69-0.18,2.51-0.53l0.4,1.55
			C89.38,22.25,88.31,22.45,87.18,22.45z"/>
		<path class="st1" d="M92.45,22.27V9.79h1.83v12.48H92.45z M98.04,22.27l-3.59-9.49h-0.81V9.79h1.16l3.59,9.49h0.44v2.99H98.04z
			 M98.57,22.27V9.79h1.83v12.48H98.57z"/>
		<path class="st1" d="M106.94,22.45c-2.67,0-4.01-1.39-4.01-4.18V9.79h1.83v8.47c0,0.83,0.18,1.46,0.54,1.88s0.92,0.63,1.68,0.63
			c1.48,0,2.21-0.84,2.21-2.51V9.79h1.83v8.47c0,1.39-0.35,2.44-1.04,3.14S108.27,22.45,106.94,22.45z"/>
		<path class="st1" d="M113.72,11.46V9.79h7.59v1.67H113.72z M113.72,22.27V20.6h7.59v1.67H113.72z M116.6,22.27V9.79h1.83v12.48
			H116.6z"/>
	</g>
</g>
</svg>
